The Girl With The Dragon Tattoo 2011 R5 DVDRip XVID AC3-26K

Imdb: 
http://www.imdb.com/title/tt1568346/

Plot:
Journalist Mikael Blomkvist is aided in his search for a woman who has been missing for forty years by Lisbeth Salander, a young computer hacker.

Sources:
VIDEO-RUSSIAN R5 DVDR!! THNXS
AUDIO-STUDIO AUDIO THNXS

Notes:
ENJOY !!!!

Greetz:
Xtreme Encode|FYA|ILLUMANTI|CM8|RX|VISION|HDSCENE|NIGHTMAREZ|xTriLL|DTRG|CRYS|REMIXHD|
BIDA|RX|REFILL|INSPiRAL|SIC|ZOMBIESZ|HOPE|Anonymous|GooN
To all the people who have helped me you know who you are

Anything to offer email us @: 26k@hushmail.me

Video
ID : 0
Format : MPEG-4 Visual
Format profile : Advanced Simple@L5
Format settings, BVOP : 2
Format settings, QPel : No
Format settings, GMC : No warppoints
Format settings, Matrix : Default (H.263)
Muxing mode : Packed bitstream
Codec ID : XVID
Codec ID/Hint : XviD
Duration : 2h 31mn
Bit rate : 947 Kbps
Width : 720 pixels
Height : 300 pixels
Display aspect ratio : 2.40:1
Frame rate : 25.000 fps
Color space : YUV
Chroma subsampling : 4:2:0
Bit depth : 8 bits
Scan type : Progressive
Compression mode : Lossy
Bits/(Pixel*Frame) : 0.175
Stream size : 1.00 GiB (68%)
Writing library : XviD 1.2.1 (UTC 2008-12-04)

Audio
ID : 1
Format : AC-3
Format/Info : Audio Coding 3
Mode extension : CM (complete main)
Codec ID : 2000
Duration : 2h 31mn
Bit rate mode : Constant
Bit rate : 448 Kbps
Channel(s) : 6 channels
Channel positions : Front: L C R, Side: L R, LFE
Sampling rate : 48.0 KHz
Bit depth : 16 bits
Compression mode : Lossy
Delay relative to video : 2s 300ms
Stream size : 485 MiB (32%)
Alignment : Split accross interleaves
Interleave, duration : 4694 ms (117.36 video frames)


Poster:

 
http://i.imgur.com/zdpBb.jpg


Screens:

 
http://i.imgur.com/qV7dd.png

 
http://i.imgur.com/z3vb3.png

 
http://i.imgur.com/qMYpe.png


ENJOY!